<svg xmlns="http://www.w3.org/2000/svg" viewBox="0 0 24 24" fill="none">
  <defs>
    <filter id="glow">
      <feDropShadow dx="0" dy="0" stdDeviation="4" flood-color="#ef4444" flood-opacity="0.6"/>
    </filter>
    <linearGradient id="gradient" x1="0%" y1="0%" x2="100%" y2="100%">
      <stop offset="0%" style="stop-color:rgba(255,255,255,0.6);stop-opacity:1" />
      <stop offset="50%" style="stop-color:transparent;stop-opacity:1" />
      <stop offset="100%" style="stop-color:rgba(255,255,255,0.2);stop-opacity:1" />
    </linearGradient>
  </defs>
  <g transform="rotate(45 12 12)">
    <path d="M20.84 4.61a5.5 5.5 0 0 0-7.78 0L12 5.67l-1.06-1.06a5.5 5.5 0 0 0-7.78 7.78l1.06 1.06L12 21.23l7.78-7.78 1.06-1.06a5.5 5.5 0 0 0 0-7.78z" 
          fill="#ef4444" 
          filter="url(#glow)"/>
    <path d="M20.84 4.61a5.5 5.5 0 0 0-7.78 0L12 5.67l-1.06-1.06a5.5 5.5 0 0 0-7.78 7.78l1.06 1.06L12 21.23l7.78-7.78 1.06-1.06a5.5 5.5 0 0 0 0-7.78z" 
          fill="url(#gradient)"/>
  </g>
</svg>
